<svg viewBox="0 0 200 200" xmlns="http://www.w3.org/2000/svg">
  <path fill=" rgba(255, 255, 255, 0.32) " d="M36.7,-60.1C44.1,-52.4,44.2,-36.3,48.4,-23.3C52.5,-10.2,60.6,-0.2,63.7,12.3C66.9,24.9,65.1,39.8,57.1,49.8C49,59.8,34.8,64.9,19.8,70.9C4.8,76.9,-11,83.9,-25.4,81.8C-39.9,79.8,-53.1,68.6,-65.1,55.8C-77.2,43.1,-88,28.6,-82.8,16.4C-77.5,4.1,-56.3,-6,-44.2,-15.1C-32.1,-24.2,-29,-32.3,-23.2,-40.7C-17.3,-49.2,-8.7,-57.9,3,-62.6C14.7,-67.2,29.3,-67.8,36.7,-60.1Z" transform="translate(100 100)" />
</svg>